<mxfile host="Electron" agent="Mozilla/5.0 (Macintosh; Intel Mac OS X 10_15_7) AppleWebKit/537.36 (KHTML, like Gecko) draw.io/24.7.17 Chrome/128.0.6613.36 Electron/32.0.1 Safari/537.36" version="24.7.17">
  <diagram name="Page-1" id="T_PnQbnJidO--OdvgyNJ">
    <mxGraphModel dx="1266" dy="743" grid="1" gridSize="10" guides="1" tooltips="1" connect="1" arrows="1" fold="1" page="1" pageScale="1" pageWidth="850" pageHeight="1100" math="0" shadow="0">
      <root>
        <mxCell id="0" />
        <mxCell id="1" parent="0" />
        <mxCell id="2_4gPakQaHez3cn2tc0t-12" style="edgeStyle=orthogonalEdgeStyle;rounded=0;orthogonalLoop=1;jettySize=auto;html=1;exitX=0.5;exitY=1;exitDx=0;exitDy=0;exitPerimeter=0;entryX=0.5;entryY=0;entryDx=0;entryDy=0;" edge="1" parent="1" source="qrCRLt0OtD2atx_0Ao5p-2" target="2_4gPakQaHez3cn2tc0t-2">
          <mxGeometry relative="1" as="geometry" />
        </mxCell>
        <mxCell id="qrCRLt0OtD2atx_0Ao5p-2" value="Start (Select Showtime)" style="strokeWidth=2;html=1;shape=mxgraph.flowchart.terminator;whiteSpace=wrap;" parent="1" vertex="1">
          <mxGeometry x="330" y="40" width="140" height="40" as="geometry" />
        </mxCell>
        <mxCell id="2_4gPakQaHez3cn2tc0t-1" value="Process Payment" style="rounded=1;whiteSpace=wrap;html=1;" vertex="1" parent="1">
          <mxGeometry x="340" y="240" width="120" height="60" as="geometry" />
        </mxCell>
        <mxCell id="2_4gPakQaHez3cn2tc0t-13" style="edgeStyle=orthogonalEdgeStyle;rounded=0;orthogonalLoop=1;jettySize=auto;html=1;exitX=0.5;exitY=1;exitDx=0;exitDy=0;entryX=0.5;entryY=0;entryDx=0;entryDy=0;" edge="1" parent="1" source="2_4gPakQaHez3cn2tc0t-2" target="2_4gPakQaHez3cn2tc0t-1">
          <mxGeometry relative="1" as="geometry" />
        </mxCell>
        <mxCell id="2_4gPakQaHez3cn2tc0t-2" value="Enter Payment Details" style="rounded=1;whiteSpace=wrap;html=1;" vertex="1" parent="1">
          <mxGeometry x="340" y="120" width="120" height="60" as="geometry" />
        </mxCell>
        <mxCell id="2_4gPakQaHez3cn2tc0t-4" value="Send Ticket via Email" style="rounded=1;whiteSpace=wrap;html=1;" vertex="1" parent="1">
          <mxGeometry x="200" y="480" width="120" height="60" as="geometry" />
        </mxCell>
        <mxCell id="2_4gPakQaHez3cn2tc0t-6" style="edgeStyle=orthogonalEdgeStyle;rounded=0;orthogonalLoop=1;jettySize=auto;html=1;entryX=0.5;entryY=0;entryDx=0;entryDy=0;" edge="1" parent="1" source="2_4gPakQaHez3cn2tc0t-5" target="2_4gPakQaHez3cn2tc0t-4">
          <mxGeometry relative="1" as="geometry" />
        </mxCell>
        <mxCell id="2_4gPakQaHez3cn2tc0t-7" style="edgeStyle=orthogonalEdgeStyle;rounded=0;orthogonalLoop=1;jettySize=auto;html=1;exitX=1;exitY=0.5;exitDx=0;exitDy=0;exitPerimeter=0;entryX=0.5;entryY=0;entryDx=0;entryDy=0;" edge="1" parent="1" source="2_4gPakQaHez3cn2tc0t-5">
          <mxGeometry relative="1" as="geometry">
            <mxPoint x="540" y="480" as="targetPoint" />
          </mxGeometry>
        </mxCell>
        <mxCell id="2_4gPakQaHez3cn2tc0t-5" value="Payment Success or Fail?" style="strokeWidth=2;html=1;shape=mxgraph.flowchart.decision;whiteSpace=wrap;" vertex="1" parent="1">
          <mxGeometry x="350" y="350" width="100" height="100" as="geometry" />
        </mxCell>
        <mxCell id="2_4gPakQaHez3cn2tc0t-8" value="&lt;span style=&quot;text-wrap: wrap;&quot;&gt;Success&lt;/span&gt;" style="text;html=1;align=center;verticalAlign=middle;resizable=0;points=[];autosize=1;strokeColor=none;fillColor=none;" vertex="1" parent="1">
          <mxGeometry x="250" y="368" width="70" height="30" as="geometry" />
        </mxCell>
        <mxCell id="2_4gPakQaHez3cn2tc0t-9" value="&lt;span style=&quot;text-wrap: wrap;&quot;&gt;Fail&lt;/span&gt;" style="text;html=1;align=center;verticalAlign=middle;resizable=0;points=[];autosize=1;strokeColor=none;fillColor=none;" vertex="1" parent="1">
          <mxGeometry x="500" y="368" width="40" height="30" as="geometry" />
        </mxCell>
        <mxCell id="2_4gPakQaHez3cn2tc0t-10" value="Confirm Booking" style="strokeWidth=2;html=1;shape=mxgraph.flowchart.terminator;whiteSpace=wrap;" vertex="1" parent="1">
          <mxGeometry x="350" y="600" width="100" height="60" as="geometry" />
        </mxCell>
        <mxCell id="2_4gPakQaHez3cn2tc0t-11" style="edgeStyle=orthogonalEdgeStyle;rounded=0;orthogonalLoop=1;jettySize=auto;html=1;exitX=0.5;exitY=1;exitDx=0;exitDy=0;entryX=0.5;entryY=0;entryDx=0;entryDy=0;entryPerimeter=0;" edge="1" parent="1" source="2_4gPakQaHez3cn2tc0t-4" target="2_4gPakQaHez3cn2tc0t-10">
          <mxGeometry relative="1" as="geometry" />
        </mxCell>
        <mxCell id="2_4gPakQaHez3cn2tc0t-14" style="edgeStyle=orthogonalEdgeStyle;rounded=0;orthogonalLoop=1;jettySize=auto;html=1;exitX=0.5;exitY=1;exitDx=0;exitDy=0;entryX=0.5;entryY=0;entryDx=0;entryDy=0;entryPerimeter=0;" edge="1" parent="1" source="2_4gPakQaHez3cn2tc0t-1" target="2_4gPakQaHez3cn2tc0t-5">
          <mxGeometry relative="1" as="geometry" />
        </mxCell>
        <mxCell id="2_4gPakQaHez3cn2tc0t-15" value="Retry Payment" style="strokeWidth=2;html=1;shape=mxgraph.flowchart.decision;whiteSpace=wrap;" vertex="1" parent="1">
          <mxGeometry x="490" y="480" width="100" height="100" as="geometry" />
        </mxCell>
        <mxCell id="2_4gPakQaHez3cn2tc0t-16" value="" style="endArrow=classic;html=1;rounded=0;exitX=1;exitY=0.5;exitDx=0;exitDy=0;exitPerimeter=0;entryX=1;entryY=0.5;entryDx=0;entryDy=0;" edge="1" parent="1" source="2_4gPakQaHez3cn2tc0t-15" target="2_4gPakQaHez3cn2tc0t-2">
          <mxGeometry width="50" height="50" relative="1" as="geometry">
            <mxPoint x="630" y="510" as="sourcePoint" />
            <mxPoint x="590" y="120" as="targetPoint" />
            <Array as="points">
              <mxPoint x="590" y="150" />
            </Array>
          </mxGeometry>
        </mxCell>
        <mxCell id="2_4gPakQaHez3cn2tc0t-17" value="Yes" style="text;html=1;align=center;verticalAlign=middle;resizable=0;points=[];autosize=1;strokeColor=none;fillColor=none;" vertex="1" parent="1">
          <mxGeometry x="490" y="130" width="40" height="30" as="geometry" />
        </mxCell>
        <mxCell id="2_4gPakQaHez3cn2tc0t-18" value="" style="endArrow=classic;html=1;rounded=0;exitX=1;exitY=0.5;exitDx=0;exitDy=0;exitPerimeter=0;entryX=1;entryY=0.5;entryDx=0;entryDy=0;entryPerimeter=0;" edge="1" parent="1" source="2_4gPakQaHez3cn2tc0t-15" target="qrCRLt0OtD2atx_0Ao5p-2">
          <mxGeometry width="50" height="50" relative="1" as="geometry">
            <mxPoint x="680" y="510" as="sourcePoint" />
            <mxPoint x="680" y="50" as="targetPoint" />
            <Array as="points">
              <mxPoint x="680" y="530" />
              <mxPoint x="680" y="60" />
            </Array>
          </mxGeometry>
        </mxCell>
        <mxCell id="2_4gPakQaHez3cn2tc0t-19" value="No" style="text;html=1;align=center;verticalAlign=middle;resizable=0;points=[];autosize=1;strokeColor=none;fillColor=none;" vertex="1" parent="1">
          <mxGeometry x="480" y="40" width="40" height="30" as="geometry" />
        </mxCell>
      </root>
    </mxGraphModel>
  </diagram>
</mxfile>
